<?xml version="1.0" standalone="no"?>
<!DOCTYPE svg PUBLIC "-//W3C//DTD SVG 20010904//EN"
 "http://www.w3.org/TR/2001/REC-SVG-20010904/DTD/svg10.dtd">
<svg version="1.0" xmlns="http://www.w3.org/2000/svg"
 width="1280.000000pt" height="1104.000000pt" viewBox="0 0 1280.000000 1104.000000"
 preserveAspectRatio="xMidYMid meet">
<metadata>
Created by potrace 1.15, written by Peter Selinger 2001-2017
</metadata>
<g transform="translate(0.000000,1104.000000) scale(0.100000,-0.100000)"
fill="#ffffff" stroke="none">
<path d="M2110 11032 c0 -7 244 -79 520 -153 25 -7 88 -12 140 -12 91 0 108 4
225 47 11 5 5 -2 -13 -15 -43 -29 -130 -49 -212 -49 -81 0 -178 22 -447 99
l-212 61 -240 0 c-154 0 -241 4 -241 10 0 16 -1609 14 -1615 -2 -3 -7 -6 -806
-7 -1776 -3 -1672 -2 -1762 15 -1762 16 0 17 -184 17 -3725 l0 -3725 6209 0
c5510 0 6210 -2 6215 -15 4 -12 33 -15 171 -15 l165 0 0 370 c0 320 -2 371
-15 376 -8 4 -15 11 -15 16 0 6 6 5 15 -2 13 -11 15 560 15 5134 l0 5146
-5345 0 c-2940 0 -5345 -4 -5345 -8z m10678 -5129 c1 -2818 0 -5123 -4 -5123
-3 0 -17 13 -32 29 -15 16 -32 30 -38 32 -6 2 -370 351 -810 774 -440 424
-1156 1107 -1592 1518 -435 412 -792 751 -792 754 0 4 8 -1 17 -9 19 -16 374
-219 1143 -653 256 -144 500 -283 543 -309 43 -25 83 -46 88 -46 6 0 25 -11
43 -25 46 -35 56 -32 56 15 0 22 -5 40 -10 40 -17 0 -834 639 -1110 869 -534
444 -620 529 -948 936 -819 1017 -1229 1374 -2714 2366 -247 165 -448 304
-448 309 0 6 7 10 15 10 8 0 15 6 15 13 0 10 111 -3 473 -55 656 -94 933 -137
998 -154 31 -7 69 -14 84 -14 24 0 26 3 23 31 -3 30 -11 39 -48 53 -8 3 -22
10 -30 16 -8 6 -258 129 -555 275 -887 435 -1833 914 -1808 915 7 0 72 -9 145
-20 316 -46 761 -102 861 -107 59 -3 110 -10 113 -15 9 -14 32 -9 36 10 8 30
-10 61 -39 68 -15 4 -35 12 -43 18 -8 7 -49 27 -90 46 -41 18 -253 118 -470
223 -217 104 -611 290 -875 414 -264 123 -485 231 -491 239 -6 8 -21 14 -33
14 -12 0 -39 11 -61 25 -22 14 -45 25 -52 25 -14 1 -58 34 -58 44 0 3 9 6 20
6 21 0 293 146 347 186 17 13 38 24 47 24 8 0 18 5 21 10 3 6 13 10 21 10 18
0 74 53 74 69 0 8 -103 11 -337 11 -186 0 -366 5 -400 10 -73 12 -252 70 -288
94 -38 25 -54 57 -70 140 -30 156 -17 300 51 569 28 111 34 155 32 216 l-3 76
-115 -112 c-63 -61 -137 -129 -164 -152 -63 -51 -156 -101 -190 -101 -55 0
-107 43 -186 156 -38 54 -130 231 -130 251 0 22 -18 23 -52 4 -69 -40 -209
-51 -331 -26 -84 17 -456 121 -465 129 -3 3 2384 5 5304 4 l5309 -3 3 -5122z
m-11283 5086 c-33 -10 -79 -19 -102 -19 -24 0 -43 -4 -43 -9 0 -5 -18 -12 -39
-16 -49 -8 -233 -105 -361 -191 -265 -176 -451 -386 -598 -679 -106 -212 -135
-365 -136 -720 0 -200 3 -243 22 -330 39 -182 163 -522 220 -603 10 -15 22
-49 25 -77 4 -27 10 -69 13 -92 6 -39 4 -45 -27 -74 -40 -38 -103 -79 -121
-79 -21 -1 -56 -33 -60 -55 -2 -14 2 -19 14 -17 9 1 19 -2 23 -8 3 -5 21 -10
38 -10 18 0 101 -20 186 -45 85 -25 164 -45 176 -45 13 0 28 -7 35 -15 7 -8
21 -15 31 -15 25 0 34 -19 12 -27 -10 -3 -25 -11 -33 -18 -30 -23 -614 -265
-656 -272 -19 -3 -39 -12 -45 -19 -6 -8 -20 -14 -30 -14 -19 0 -19 44 -19
1735 l0 1735 768 -1 767 -1 -60 -19z m471 -59 c174 -13 368 -57 574 -128 82
-28 191 -34 326 -19 l72 9 11 -35 c7 -20 19 -41 27 -47 19 -17 18 -27 -3 -27
-10 0 -29 13 -43 29 -29 33 -38 34 -56 11 -11 -16 -33 -18 -206 -18 -242 1
-316 17 -470 101 -96 53 -111 58 -228 76 -69 11 -152 28 -185 38 l-60 19 60 0
c33 0 115 -4 181 -9z m1824 -144 c0 -24 -20 -126 -45 -227 -56 -232 -71 -365
-56 -480 25 -185 45 -212 199 -263 174 -57 185 -59 552 -66 l345 -6 -340 -2
c-191 -1 -367 3 -402 8 -73 12 -252 70 -288 94 -39 26 -55 59 -70 143 -30 163
-18 297 50 571 22 89 35 168 35 208 0 36 4 64 10 64 6 0 10 -20 10 -44z
m-1952 -68 c-2 -9 14 -14 47 -16 27 -2 57 -9 65 -17 8 -7 51 -27 95 -43 53
-19 81 -34 83 -46 3 -14 -2 -16 -25 -10 -38 8 -161 52 -196 70 -16 8 -37 14
-47 14 -9 0 -23 6 -29 14 -7 8 -41 18 -79 21 -106 11 -108 24 -4 25 68 0 91
-3 90 -12z m232 -4 c74 -8 147 -22 162 -30 14 -8 37 -14 50 -14 12 -1 34 -7
48 -15 14 -8 35 -14 46 -15 12 0 104 -25 205 -55 210 -62 238 -78 319 -183 30
-40 71 -83 90 -97 71 -53 188 -95 263 -95 46 0 47 0 47 -32 0 -18 5 -81 12
-140 10 -94 14 -108 30 -108 10 0 18 7 18 15 0 8 5 15 11 15 5 0 7 -4 4 -10
-3 -5 5 -15 19 -21 14 -7 28 -20 31 -31 17 -53 44 14 52 127 2 44 11 94 19
112 8 17 14 46 14 65 0 18 4 49 10 67 8 28 6 38 -7 53 -13 15 -14 22 -4 41 7
13 22 29 33 36 20 12 21 11 14 -21 -32 -158 -28 -308 11 -451 13 -48 25 -66
67 -102 70 -62 176 -112 261 -124 39 -6 94 -15 124 -21 29 -5 118 -10 197 -10
89 0 144 -4 144 -10 0 -5 -5 -10 -10 -10 -10 0 -34 -16 -185 -124 -122 -88
-119 -85 -95 -111 12 -13 83 -51 158 -85 75 -35 146 -69 157 -77 26 -17 55
-17 55 1 0 8 5 18 11 22 7 4 9 0 5 -13 -7 -22 6 -37 44 -48 14 -4 27 -11 30
-16 3 -4 158 -77 345 -162 187 -85 448 -208 580 -274 132 -66 278 -137 325
-158 47 -21 92 -44 100 -51 8 -7 24 -14 35 -17 11 -2 -20 -5 -70 -6 -98 -1
-171 6 -738 75 -208 25 -397 44 -420 42 -39 -3 -42 -5 -39 -30 2 -24 -1 -28
-22 -28 -14 0 -28 5 -31 10 -6 9 -52 32 -120 60 -19 8 -107 30 -119 30 -3 0
-6 -7 -6 -15 0 -9 -7 -18 -15 -21 -8 -4 -15 -17 -15 -30 0 -15 6 -24 15 -24 8
0 15 -4 15 -10 0 -5 5 -10 11 -10 5 0 7 5 4 10 -10 16 7 11 29 -8 20 -17 1159
-558 1506 -715 85 -38 162 -76 171 -83 8 -8 21 -14 28 -14 10 0 157 -70 211
-100 8 -5 24 -12 35 -16 17 -6 18 -8 3 -11 -9 -2 -30 3 -47 11 -16 9 -47 16
-68 16 -21 1 -72 14 -113 30 -41 17 -89 30 -106 30 -17 0 -37 7 -44 15 -21 25
-50 19 -50 -10 0 -14 6 -25 13 -25 8 0 22 -9 32 -20 10 -12 25 -18 33 -15 25
9 292 -107 292 -127 0 -14 -204 0 -258 18 -23 8 -65 14 -92 14 -27 0 -52 5
-55 10 -11 18 -25 10 -25 -15 0 -18 5 -25 19 -25 10 0 29 -8 42 -19 13 -10 57
-35 98 -55 40 -21 70 -40 67 -43 -8 -9 24 -43 41 -43 7 0 13 -4 13 -10 0 -14
-10 -13 -29 3 -17 14 -354 157 -371 157 -5 0 -10 -7 -10 -15 0 -16 56 -55 78
-55 8 0 21 -8 30 -19 10 -10 186 -128 392 -261 906 -588 1115 -733 1530 -1059
403 -316 527 -427 774 -691 293 -313 393 -427 747 -858 24 -30 0 -19 -31 13
-39 40 -50 43 -50 15 0 -11 35 -62 78 -113 43 -51 82 -99 87 -107 12 -20 -70
49 -185 156 -225 209 -339 297 -765 590 -335 230 -469 317 -613 398 -56 32
-107 67 -113 77 -5 11 -18 19 -29 19 -10 0 -21 4 -24 9 -10 15 -87 52 -97 46
-17 -11 -9 -30 24 -52 18 -13 42 -31 53 -40 11 -10 35 -29 53 -42 19 -13 201
-159 405 -325 401 -325 936 -751 1081 -860 50 -37 106 -80 125 -97 19 -16 44
-36 55 -44 16 -12 17 -14 4 -15 -9 0 -22 7 -29 15 -7 8 -18 15 -26 15 -7 0
-32 13 -56 29 -45 30 -312 183 -678 388 -118 67 -231 130 -250 142 -19 11 -42
24 -50 27 -8 3 -25 11 -37 17 -29 13 -36 6 -27 -26 7 -30 1200 -1220 1653
-1649 370 -351 451 -429 451 -435 0 -3 19 -23 41 -44 23 -22 38 -39 34 -39 -8
0 -74 47 -85 60 -11 13 -128 99 -182 133 -32 20 -58 41 -58 46 0 10 -38 34
-72 47 -10 3 -18 10 -18 14 0 7 -55 40 -67 40 -1 0 -3 -11 -3 -25 0 -14 5 -25
11 -25 5 0 36 -26 67 -57 31 -32 140 -139 242 -238 312 -302 818 -804 826
-817 4 -7 -2 -5 -13 4 -11 10 -25 18 -32 18 -6 0 -14 7 -17 15 -4 8 -13 15
-20 15 -17 0 -139 81 -624 415 -585 403 -1427 975 -1435 975 -4 0 -25 14 -46
31 -21 17 -43 28 -49 24 -13 -8 -13 -45 1 -45 9 0 1037 -964 1123 -1055 21
-22 51 -53 67 -70 16 -16 29 -34 29 -40 0 -6 -3 -6 -8 0 -8 11 -53 42 -92 63
-47 25 -150 107 -150 120 0 6 -4 12 -10 12 -5 0 -25 13 -43 30 -19 16 -37 30
-41 30 -3 0 -40 28 -83 63 -129 104 -1201 906 -1793 1341 -305 225 -567 421
-581 437 -14 16 -29 29 -33 29 -4 0 -23 12 -42 27 -47 35 -67 19 -33 -29 13
-18 29 -40 34 -49 9 -15 237 -315 394 -519 259 -335 570 -654 882 -903 53 -42
101 -77 106 -77 5 0 18 -9 28 -20 59 -66 -134 42 -415 230 -293 197 -464 324
-665 495 -217 185 -913 888 -1401 1415 -232 250 -433 466 -448 479 -14 14 -26
30 -26 38 0 7 -10 13 -21 13 -19 0 -21 -4 -14 -37 4 -21 13 -42 21 -46 8 -4
14 -14 14 -22 0 -7 11 -22 24 -32 13 -10 75 -97 137 -193 341 -526 583 -827
983 -1224 258 -256 402 -385 504 -453 28 -19 52 -40 52 -46 0 -7 -4 -7 -12 1
-7 7 -19 12 -28 12 -9 0 -21 5 -28 12 -6 6 -26 17 -44 23 -55 19 -705 457
-843 568 -293 235 -1006 959 -1661 1687 -305 338 -439 497 -639 756 -98 126
-190 241 -206 256 -43 40 -589 805 -589 824 0 5 -13 24 -29 41 -15 17 -31 38
-34 46 -3 9 -35 32 -72 52 -101 57 -223 62 -247 10 -9 -19 -7 -30 10 -57 12
-19 32 -40 45 -47 26 -14 203 -199 382 -400 66 -74 188 -206 270 -294 165
-174 265 -285 265 -293 0 -6 -80 55 -90 67 -38 49 -406 427 -408 420 -5 -16
-29 -13 -36 4 -3 8 -11 15 -18 15 -6 0 -26 14 -42 30 -17 17 -57 54 -90 83
-32 28 -84 84 -114 122 -87 110 -127 145 -163 145 -31 0 -31 0 -15 -25 9 -13
16 -31 16 -38 0 -8 7 -20 16 -28 9 -7 28 -38 44 -68 29 -58 65 -97 135 -146
66 -47 82 -75 44 -75 -13 0 -23 -10 -31 -30 -5 -17 -18 -35 -29 -40 -15 -9
-16 -15 -7 -43 11 -33 69 -97 88 -97 5 0 10 7 10 15 0 55 131 -36 370 -256 80
-74 206 -189 280 -256 165 -149 257 -250 301 -328 43 -78 84 -139 131 -196 21
-25 38 -50 38 -55 0 -5 14 -20 30 -34 16 -14 30 -30 30 -37 0 -7 11 -13 25
-13 25 0 26 16 1 50 -20 27 -36 59 -36 72 0 6 -7 20 -17 30 -9 10 -13 18 -10
18 10 0 67 -64 67 -76 0 -5 27 -62 61 -125 136 -256 439 -857 439 -871 0 -9 7
-21 15 -28 8 -7 15 -19 15 -28 0 -8 8 -25 18 -36 17 -21 17 -21 -5 -2 -13 11
-23 24 -23 29 0 6 -17 26 -39 46 -21 20 -87 95 -147 166 -227 273 -808 952
-1279 1495 -468 540 -545 631 -545 645 0 12 -63 64 -72 59 -13 -8 -9 -41 7
-54 8 -7 15 -27 15 -45 0 -18 7 -38 15 -45 8 -7 15 -22 15 -34 1 -11 7 -32 15
-46 8 -14 14 -33 15 -42 0 -22 424 -1158 456 -1221 13 -27 24 -58 24 -70 0
-11 7 -29 17 -39 9 -10 13 -21 10 -25 -12 -11 -47 29 -47 53 0 13 -9 38 -19
56 -11 18 -63 150 -116 293 -261 705 -339 905 -350 903 -18 -5 -75 49 -75 70
0 11 -7 25 -15 32 -8 7 -15 16 -15 21 0 13 -38 49 -51 49 -7 0 -9 -9 -5 -22 4
-13 9 -36 11 -52 2 -16 11 -36 19 -45 18 -20 126 -337 126 -371 0 -14 7 -34
15 -44 8 -11 15 -31 15 -44 0 -23 -2 -22 -35 14 -20 22 -68 80 -108 130 -39
50 -148 186 -242 302 l-170 211 -3 -70 c-2 -52 -6 -69 -17 -69 -8 0 -15 -6
-15 -12 0 -7 -8 -1 -17 12 -52 76 -346 465 -395 521 -31 36 -72 73 -91 82 -52
25 -122 21 -197 -12 -56 -23 -411 -234 -492 -292 -15 -10 -32 -19 -38 -19 -5
0 -10 -4 -10 -9 0 -5 -7 -11 -14 -14 -10 -4 -13 -1 -9 9 3 7 9 14 13 14 5 0
22 21 39 48 17 26 49 69 70 95 21 27 66 95 101 153 44 73 68 104 82 104 10 0
21 7 24 15 4 8 12 15 20 15 19 0 18 56 -1 64 -8 3 -15 12 -15 21 0 13 12 14
82 10 93 -7 118 -16 207 -74 35 -22 68 -41 73 -41 5 0 39 32 77 70 73 74 134
109 189 110 36 0 70 29 107 91 23 38 112 87 158 88 19 1 38 11 55 31 26 30 28
30 129 30 92 0 103 2 103 18 0 10 -7 28 -16 40 -9 13 -17 44 -17 70 -2 42 0
47 26 56 20 7 33 7 47 -2 11 -7 29 -12 40 -12 11 0 28 -4 38 -9 136 -73 169
-64 99 26 -24 32 -57 83 -72 113 -15 30 -38 69 -51 86 -13 17 -24 37 -24 44 0
8 -5 28 -12 46 -12 34 -7 51 27 98 16 21 237 75 308 76 20 0 37 5 37 10 0 6
-17 34 -38 63 -52 70 -117 192 -132 247 -17 60 -14 266 4 317 7 21 41 85 75
142 63 107 76 151 42 151 -26 0 -110 64 -148 114 -48 63 -99 173 -111 241 -6
33 -14 104 -17 157 l-6 98 29 -13 c17 -7 47 -33 68 -59 44 -53 127 -128 142
-128 5 0 50 -46 99 -102 50 -57 114 -128 143 -158 29 -30 57 -67 62 -82 6 -16
16 -28 24 -28 19 0 18 54 -1 70 -8 7 -15 21 -15 32 0 22 -17 55 -66 133 -17
28 -44 72 -58 98 -36 62 -157 207 -239 283 -35 33 -107 90 -160 128 -53 37
-97 71 -97 75 0 10 -89 70 -149 101 -65 33 -223 97 -336 137 -55 19 -107 42
-116 49 -8 8 -32 14 -52 14 -20 0 -37 5 -37 10 0 14 44 13 200 -6z m-365 -15
c75 -10 107 -20 178 -55 16 -8 37 -14 47 -14 10 0 22 -5 26 -11 5 -8 0 -10
-17 -6 -13 3 -71 9 -129 13 -104 6 -169 27 -195 60 -5 7 -23 15 -40 17 -25 3
-24 4 10 6 22 0 76 -4 120 -10z m-100 -30 c11 -10 31 -22 44 -27 18 -6 -8 -12
-107 -21 -212 -19 -300 -46 -501 -155 -82 -44 -136 -81 -190 -132 -138 -130
-267 -339 -317 -513 -14 -52 -32 -107 -39 -123 -10 -25 -13 -27 -24 -14 -21
26 -14 99 20 197 38 111 58 153 112 234 83 124 234 290 314 346 74 51 333 165
442 193 57 15 113 31 125 36 30 12 98 1 121 -21z m1545 -38 c17 -27 51 -68 75
-90 42 -39 62 -46 110 -43 16 2 17 0 5 -8 -22 -14 -67 -12 -98 4 -54 28 -164
170 -139 179 6 3 13 6 13 6 1 1 16 -21 34 -48z m449 -63 c-7 -13 -18 -50 -24
-83 l-11 -60 -60 -5 c-46 -4 -69 -12 -97 -33 -36 -27 -39 -28 -94 -17 -32 6
-84 15 -116 20 -49 7 -64 15 -97 49 -22 22 -51 63 -65 91 -28 55 -20 70 9 18
27 -48 76 -97 115 -115 44 -22 125 -19 197 6 78 28 224 125 224 149 0 13 24
22 28 11 2 -4 -2 -18 -9 -31z m-1621 -178 c72 -9 75 -11 144 -75 134 -124 231
-264 324 -465 34 -74 66 -148 70 -165 7 -30 6 -29 -25 10 -17 22 -62 85 -99
140 -103 153 -211 295 -230 303 -10 4 -43 27 -74 50 -77 59 -241 149 -305 168
-28 8 -80 21 -115 29 l-63 13 150 1 c83 0 183 -4 223 -9z m-252 -35 c185 -47
467 -233 519 -341 8 -17 22 -37 31 -45 14 -12 114 -156 215 -311 33 -52 53
-50 44 3 -7 43 -18 73 -61 169 -88 195 -188 345 -308 463 -57 55 -74 77 -60
77 63 -2 253 -69 323 -116 22 -14 72 -38 113 -53 l73 -27 7 -104 c10 -163 26
-236 69 -318 52 -98 96 -150 163 -192 66 -41 66 -47 4 -148 -88 -144 -93 -160
-93 -324 l0 -147 64 -123 c35 -68 74 -138 88 -155 l24 -33 -41 0 c-22 0 -93
-12 -158 -26 -107 -23 -120 -28 -149 -61 -33 -36 -44 -85 -23 -98 6 -3 10 -17
10 -29 0 -27 14 -57 51 -106 15 -19 38 -57 52 -85 14 -27 37 -65 51 -84 28
-38 27 -54 -2 -28 -10 10 -26 17 -36 17 -9 0 -29 6 -44 14 -36 19 -113 30
-150 21 -22 -4 -32 -14 -37 -33 -4 -16 -2 -28 4 -30 6 -2 11 -11 11 -20 0 -9
9 -36 20 -59 l19 -43 -104 0 c-100 0 -105 -1 -121 -25 -10 -15 -29 -27 -52
-31 -21 -4 -46 -11 -57 -17 -20 -10 -20 -10 -1 12 l19 21 -36 0 c-36 0 -314
80 -434 125 -96 37 -265 124 -369 191 -68 43 -114 84 -177 154 -46 52 -112
119 -146 149 -53 46 -70 70 -120 170 -75 150 -126 278 -158 399 -24 87 -26
116 -27 287 0 166 2 200 22 275 59 222 215 434 406 549 101 61 246 131 296
142 51 11 161 1 266 -26z m-1250 -705 c11 0 14 -21 14 -92 0 -100 19 -257 45
-378 25 -119 102 -340 140 -402 19 -31 35 -61 35 -67 0 -6 7 -19 15 -28 36
-41 153 -190 190 -243 68 -97 315 -308 422 -361 24 -11 45 -25 49 -30 3 -5 13
-9 23 -9 10 0 24 -6 30 -14 6 -8 24 -16 39 -19 15 -2 88 -27 162 -55 155 -58
155 -68 -3 -60 -94 5 -111 10 -207 52 -58 25 -126 57 -153 71 -26 14 -53 25
-61 25 -8 0 -16 7 -20 15 -3 8 -11 15 -17 15 -29 0 -120 96 -224 236 -63 84
-115 156 -115 159 0 12 -103 165 -112 165 -4 0 -8 7 -8 15 0 8 -4 15 -8 15 -5
0 -22 13 -38 30 -16 16 -34 30 -40 30 -39 1 -136 171 -169 296 -43 165 -61
480 -35 618 14 75 15 78 24 48 5 -18 15 -32 22 -32z m3814 -235 c7 -8 21 -15
31 -15 10 0 40 -13 66 -30 26 -16 54 -30 62 -30 18 -1 61 -30 44 -30 -7 0 -15
5 -18 10 -5 8 -11 8 -20 0 -9 -8 -15 -8 -20 0 -3 5 -13 10 -21 10 -8 0 -32 12
-53 26 -22 14 -45 27 -53 28 -18 3 -58 29 -58 38 0 14 27 9 40 -7z m245 -123
c-3 -3 -11 0 -18 7 -9 10 -8 11 6 5 10 -3 15 -9 12 -12z m535 -245 c997 -470
1434 -682 1385 -671 -16 4 -37 12 -45 19 -8 6 -44 24 -80 40 -36 15 -238 111
-450 213 -212 101 -577 276 -811 387 -391 186 -509 244 -469 231 8 -2 220
-101 470 -219z m-4292 -508 c23 -36 42 -71 42 -77 0 -7 8 -20 18 -30 32 -35
52 -62 52 -72 0 -6 5 -10 10 -10 6 0 10 -7 10 -15 0 -8 4 -15 9 -15 5 0 34
-35 65 -78 55 -79 118 -143 172 -178 16 -10 31 -21 34 -24 7 -7 74 -39 210
-101 l115 -52 123 -5 c102 -3 126 -1 140 12 15 12 29 14 82 6 36 -5 111 -10
166 -10 l102 0 -32 -33 c-17 -18 -38 -47 -48 -64 -12 -23 -27 -35 -57 -42 -23
-6 -59 -16 -81 -22 -30 -7 -61 -30 -115 -85 -41 -40 -81 -74 -88 -74 -8 0 -32
13 -54 29 -55 40 -111 67 -154 75 -31 5 -36 10 -32 26 3 11 -2 31 -11 45 -9
13 -16 31 -16 39 0 21 -47 53 -179 121 -115 60 -116 61 -184 152 -65 87 -74
94 -158 138 -49 25 -96 56 -104 69 -8 12 -24 56 -34 98 -11 41 -40 119 -65
173 -25 54 -46 104 -46 111 0 8 -5 14 -11 14 -5 0 -8 4 -5 9 9 14 77 -57 124
-130z m4502 -74 c7 -8 19 -15 27 -15 9 0 331 -159 717 -353 385 -194 908 -455
1161 -580 253 -124 467 -231 475 -236 8 -5 22 -12 30 -16 37 -15 65 -35 49
-35 -9 0 -22 7 -29 15 -7 8 -17 15 -22 15 -6 0 -103 47 -216 104 -114 57 -387
191 -607 299 -220 107 -658 326 -974 486 -316 160 -582 291 -592 291 -10 0
-21 5 -24 11 -4 6 -17 14 -29 19 l-21 9 21 0 c12 1 27 -6 34 -14z m-3907 -735
l26 -40 -28 0 c-16 0 -34 7 -41 15 -7 9 -19 14 -27 11 -9 -4 -13 4 -13 24 0
26 4 30 28 30 22 0 34 -9 55 -40z m4807 -321 c0 -14 -16 -11 -29 5 -10 12 -8
13 8 9 12 -3 21 -9 21 -14z m-45 1 c3 -5 2 -10 -4 -10 -5 0 -13 5 -16 10 -3 6
-2 10 4 10 5 0 13 -4 16 -10z m490 -361 c1053 -703 1538 -1077 1980 -1530 108
-111 100 -104 -50 42 -492 478 -919 802 -2052 1558 -183 121 -333 224 -333
227 0 7 -19 20 455 -297z m-4255 -355 c0 -23 -7 -16 -29 29 l-20 42 24 -28
c14 -15 25 -35 25 -43z m6460 -1411 c0 -8 -9 0 -50 45 l-45 47 48 -45 c26 -24
47 -45 47 -47z m90 -100 c0 -8 -9 0 -50 45 l-45 47 48 -45 c26 -24 47 -45 47
-47z m40 -48 c13 -14 21 -25 18 -25 -2 0 -15 11 -28 25 -13 14 -21 25 -18 25
2 0 15 -11 28 -25z m66 -77 l29 -33 -32 29 c-31 28 -38 36 -30 36 2 0 16 -15
33 -32z m515 -635 c13 -16 12 -17 -3 -4 -10 7 -18 15 -18 17 0 8 8 3 21 -13z
m409 -393 c256 -222 536 -450 944 -769 220 -172 408 -319 420 -326 11 -8 18
-17 15 -19 -2 -3 -198 147 -435 332 -630 493 -975 782 -1199 1006 l-130 129
120 -114 c66 -63 185 -170 265 -239z m415 -975 c875 -826 2341 -2234 2333
-2240 -2 -2 -318 301 -703 673 -385 371 -1102 1054 -1592 1519 -491 464 -893
847 -893 850 0 4 30 -23 68 -58 37 -36 391 -371 787 -744z m1020 -183 c-3 -3
-11 0 -18 7 -9 10 -8 11 6 5 10 -3 15 -9 12 -12z"/>
<path d="M4290 8511 c0 -10 9 -30 20 -44 11 -14 20 -30 20 -36 0 -6 4 -11 9
-11 12 0 123 -151 117 -158 -3 -3 -14 2 -24 11 -10 10 -26 17 -34 17 -9 0 -21
7 -28 15 -7 8 -20 15 -29 15 -9 0 -97 26 -196 59 -163 54 -194 61 -333 75
-149 15 -153 15 -172 -4 -34 -34 -27 -107 15 -170 19 -29 35 -54 35 -57 0 -3
28 -35 61 -71 34 -37 72 -83 84 -103 20 -31 87 -71 452 -273 236 -130 434
-236 440 -236 6 0 16 -7 23 -15 7 -8 19 -15 26 -15 8 0 85 -41 171 -91 87 -50
177 -100 199 -109 23 -10 45 -23 48 -29 4 -6 14 -11 23 -11 9 0 24 -6 32 -14
9 -8 28 -18 44 -21 21 -6 27 -4 27 9 0 23 6 20 53 -18 23 -18 123 -89 222
-156 99 -68 195 -136 213 -151 18 -16 39 -29 46 -29 8 0 16 -7 20 -15 3 -8 12
-15 21 -15 8 0 15 -5 15 -11 0 -6 -3 -9 -7 -7 -5 2 -21 10 -38 17 -16 8 -77
38 -135 67 -58 28 -195 95 -305 147 -210 100 -679 330 -705 345 -8 6 -26 14
-40 20 -14 6 -55 24 -93 41 -37 17 -70 31 -73 31 -3 0 -36 17 -72 39 -123 71
-140 64 -72 -32 50 -72 1029 -1165 1053 -1175 4 -2 5 -8 1 -13 -3 -5 8 -21 25
-35 17 -14 31 -30 31 -35 0 -6 -10 0 -22 12 -13 11 -52 42 -88 67 -185 131
-1166 900 -1196 938 -6 8 -16 14 -22 14 -6 0 -18 7 -27 16 -11 12 -20 13 -27
6 -11 -11 -2 -52 13 -52 5 0 9 -8 9 -17 0 -9 7 -24 15 -33 8 -9 70 -133 138
-275 99 -208 315 -644 419 -847 9 -18 17 -35 18 -38 1 -22 -182 176 -358 385
-115 138 -229 268 -252 290 -23 22 -46 50 -51 63 -5 12 -15 22 -24 22 -20 0
-21 -59 0 -66 8 -4 13 -10 10 -14 -3 -4 5 -19 16 -34 11 -14 17 -26 12 -26 -4
0 -1 -6 8 -13 9 -7 80 -136 158 -287 l142 -275 137 -140 c213 -217 369 -381
591 -620 112 -121 275 -294 363 -385 88 -91 163 -168 167 -172 3 -4 25 -23 47
-43 47 -39 74 -45 74 -15 0 11 -7 20 -15 20 -8 0 -17 12 -20 28 -4 15 -10 34
-15 42 -5 8 -18 33 -28 55 -11 22 -86 155 -169 295 -450 765 -503 859 -503
889 0 10 12 3 33 -17 18 -18 38 -32 43 -32 16 0 1062 -1055 1393 -1405 161
-170 324 -340 362 -377 38 -36 69 -70 69 -75 0 -13 54 -63 67 -63 6 0 13 -7
17 -15 7 -20 56 -20 56 0 0 8 -5 15 -10 15 -6 0 -14 8 -17 17 -4 10 -23 42
-43 73 -40 60 -233 398 -379 662 -50 91 -98 172 -106 178 -8 7 -15 25 -15 41
0 24 4 29 24 29 13 0 29 -7 36 -15 7 -8 16 -15 21 -15 5 0 568 -377 1251 -837
684 -461 1294 -872 1355 -913 62 -41 115 -83 118 -92 4 -10 14 -18 24 -18 10
0 24 -7 31 -15 7 -8 17 -15 23 -15 6 0 18 -6 26 -14 9 -8 31 -17 49 -21 28 -6
32 -4 32 15 0 13 -11 27 -30 38 -16 9 -30 22 -30 28 0 5 -13 23 -30 39 -16 16
-30 35 -30 42 0 7 -8 13 -17 13 -23 0 -1442 1421 -1425 1427 7 3 21 -2 31 -11
10 -9 21 -16 25 -16 4 0 19 -12 34 -26 15 -14 43 -34 63 -44 19 -10 41 -26 48
-34 8 -9 23 -16 36 -16 12 0 41 -14 63 -30 23 -16 46 -30 51 -30 5 0 14 -7 21
-15 14 -17 50 -20 50 -4 0 6 -230 239 -510 518 -306 303 -510 513 -510 524 0
10 3 17 8 15 4 -2 24 -12 44 -21 20 -9 39 -21 43 -27 10 -16 40 -12 58 8 15
17 15 19 -5 32 -12 8 -53 42 -91 75 -205 175 -299 253 -416 345 -75 59 -136
114 -143 131 -7 15 -21 31 -33 35 -14 5 -6 9 30 11 45 4 65 -3 205 -70 85 -41
217 -100 293 -131 154 -62 445 -209 464 -234 7 -8 16 -12 20 -9 3 4 14 0 23
-8 10 -9 27 -17 39 -20 17 -3 21 1 21 21 0 13 -6 24 -13 24 -7 0 -24 13 -37
30 -14 16 -28 29 -33 30 -4 0 -80 57 -168 128 -89 70 -177 138 -197 151 -21
14 -111 77 -202 141 -174 123 -513 346 -567 374 -18 9 -33 21 -33 26 0 5 -19
19 -42 31 -24 12 -46 26 -49 31 -8 12 -38 29 -106 62 -29 14 -53 30 -53 36 0
6 -11 15 -25 20 -14 5 -25 14 -25 20 0 5 -6 10 -14 10 -7 0 -19 7 -26 15 -7 8
-33 24 -58 35 -60 27 -210 120 -225 139 -7 9 -23 21 -37 27 -14 6 -99 60 -190
120 -183 120 -198 130 -220 140 -8 3 -44 21 -80 39 -36 18 -90 43 -120 56 -30
13 -100 49 -156 81 -56 32 -108 58 -116 58 -9 0 -21 7 -28 15 -14 17 -85 21
-75 5 3 -5 3 -10 -1 -10 -3 0 -135 96 -293 213 -158 116 -313 230 -345 252
-32 21 -53 41 -47 43 7 2 20 -3 30 -12 10 -9 24 -16 33 -16 8 0 23 -9 33 -20
10 -11 22 -20 27 -20 16 0 375 -177 382 -189 4 -6 15 -11 25 -11 10 0 24 -7
31 -15 7 -8 20 -15 30 -15 10 0 23 -7 30 -15 21 -25 50 -19 50 10 0 16 -6 25
-16 25 -8 0 -34 16 -57 35 -23 19 -89 69 -147 111 -148 106 -428 327 -429 338
-1 5 7 2 17 -7 10 -10 26 -17 36 -17 9 0 29 -9 44 -20 15 -10 149 -71 297
-134 465 -197 666 -284 694 -303 51 -35 161 -67 161 -47 -1 17 -27 44 -43 44
-9 0 -19 5 -22 11 -4 6 -14 14 -24 17 -9 4 -77 47 -151 96 -74 49 -232 152
-350 229 -118 77 -227 148 -242 158 -15 11 -32 19 -38 19 -5 0 -10 5 -10 10 0
6 -10 15 -22 19 -13 5 -50 30 -83 55 -32 24 -84 58 -115 74 -85 45 -120 66
-120 75 0 4 -9 7 -20 7 -13 0 -20 -7 -20 -19z m816 -1078 c57 -43 104 -81 104
-85 0 -5 -46 26 -102 68 -113 83 -126 94 -114 94 4 0 55 -35 112 -77z m144
-115 c0 -6 -6 -5 -15 2 -8 7 -15 14 -15 16 0 2 7 1 15 -2 8 -4 15 -11 15 -16z
m50 -33 c11 -13 10 -14 -4 -9 -9 3 -16 10 -16 15 0 13 6 11 20 -6z"/>
<path d="M2540 9595 c0 -8 5 -15 10 -15 6 0 10 7 10 15 0 8 -4 15 -10 15 -5 0
-10 -7 -10 -15z"/>
</g>
</svg>
